<?xml version="1.0" encoding="utf-8"?>
<!-- Generator: Adobe Illustrator 24.2.1, SVG Export Plug-In . SVG Version: 6.00 Build 0)  -->
<svg version="1.1" id="Layer_1" xmlns="http://www.w3.org/2000/svg" xmlns:xlink="http://www.w3.org/1999/xlink" x="0px" y="0px"
	 viewBox="0 0 72.5 79.9" style="enable-background:new 0 0 72.5 79.9;" xml:space="preserve">
<style type="text/css">
	.st0{fill:#FF0000;}
</style>
<path class="st0" d="M29.9,13.1L36.3,0l6.4,12.6c0.8,1.3,1.4,1.2,2.7,0.6l5.5-2.7l-3.6,17.6c-0.7,3.5,1.2,4.5,3.4,2.1l7.8-8.4
	l2.1,4.7c0.7,1.4,1.7,1.2,3.1,1l8.1-1.7L69.1,36v0.2c-0.3,1.3-1,2.4,0.5,3.1l2.9,1.4L55.8,54.8c-1.7,1.7-1.1,2.3-0.5,4.2l1.5,4.7
	L41.3,61c-1.9-0.5-3.2-0.5-3.3,1.1l0.6,17.8h-4.7l0.6-17.8c0-1.7-1.3-1.7-4.5-1.1l-14.4,2.8l1.9-4.7c0.6-1.8,0.8-3-0.6-4.2L0,41
	l3.1-1.9c0.9-0.7,1-1.4,0.5-3L0.4,25.8l8.2,1.7c2.3,0.5,2.9,0,3.5-1.2l2.3-4.7l8.1,9c1.4,1.7,3.5,0.6,2.8-1.9L21.4,9.6l6,3.5
	c1,0.6,2,0.7,2.6-0.4"/>
</svg>
